<?xml version="1.0" standalone="no"?>
<!DOCTYPE svg PUBLIC "-//W3C//DTD SVG 20010904//EN"
 "http://www.w3.org/TR/2001/REC-SVG-20010904/DTD/svg10.dtd">
<svg version="1.0" xmlns="http://www.w3.org/2000/svg"
 width="512.000000pt" height="512.000000pt" viewBox="0 0 512.000000 512.000000"
 preserveAspectRatio="xMidYMid meet">
<metadata>
Created by potrace 1.11, written by Peter Selinger 2001-2013
</metadata>
<g transform="translate(0.000000,512.000000) scale(0.100000,-0.100000)"
fill="#000000" stroke="none">
<path d="M1220 4319 c-74 -12 -171 -61 -211 -106 -45 -51 -76 -126 -88 -208
-13 -94 -13 -2815 0 -2910 12 -82 43 -156 88 -208 41 -46 138 -94 216 -106 36
-6 641 -10 1528 -10 l1467 -1 0 190 0 190 -1402 1 c-1060 0 -1411 3 -1437 12
-19 7 -44 25 -55 40 -21 28 -21 38 -24 619 -3 560 -2 590 15 594 10 2 596 5
1303 7 l1285 2 66 23 c123 41 193 112 232 236 22 71 22 73 22 856 l0 785
-1475 1 c-817 1 -1500 -2 -1530 -7z m2604 -385 c14 -14 16 -75 16 -522 0 -567
1 -559 -70 -594 -33 -17 -113 -18 -1237 -18 -1079 0 -1203 2 -1217 16 -14 14
-16 75 -16 523 0 352 3 518 11 540 7 18 26 41 43 52 30 18 69 19 1243 19 1088
0 1213 -2 1227 -16z"/>
</g>
</svg>
