<svg fill="none" xmlns="http://www.w3.org/2000/svg" viewBox="0 0 500 84"><g clip-path="url(#clip0)" fill="#000"><path d="M42.708 0a41.84 41.84 0 0134.063 17.674L62.88 29.028a23.75 23.75 0 00-20.173-11.354 23.437 23.437 0 00-23.194 23.993A23.436 23.436 0 0042.708 65.66a23.75 23.75 0 0020.174-11.354L76.77 65.66A41.667 41.667 0 1142.708 0zM93.02.903h18.369v31.944h32.604V.903h18.368V82.43h-18.368V50.52h-32.604v31.91H93.021V.903zM175.174 82.43h19.27l5.973-12.638h29.826l5.868 12.639h19.271L215.278 0l-40.104 82.43zm32.257-27.569l7.847-16.875 7.951 16.875h-15.798zM338.09 0v82.43h-18.368V39.827l-51.423 43.507V.903h18.368v42.604L338.09 0zM398.125 0a41.876 41.876 0 0134.097 17.674l-13.889 11.354a23.749 23.749 0 00-20.208-11.354A23.437 23.437 0 00375 41.667a23.44 23.44 0 0023.16 23.993 23.748 23.748 0 0020.208-11.354l13.889 11.354a41.668 41.668 0 01-75.71-25.358A41.673 41.673 0 01398.125 0zM448.472.903h50.486v18.16H466.84V32.95h25.243v17.674H466.84v13.889h32.118v18.16h-50.486V.903z"/></g><defs><clipPath id="clip0"><path fill="#fff" d="M0 0h500v83.333H0z"/></clipPath></defs></svg>