<svg xmlns="http://www.w3.org/2000/svg" viewBox="0 0 281.27 46.56"><title>Recurso 3</title><g id="Capa_2" data-name="Capa 2"><g id="Capa_1-2" data-name="Capa 1"><path d="M0,.78H16.14V2.52H2V27H13.8v1.74H2V44H16.14v1.74H0Z"/><path d="M55.26.78H57V46.44L23.88,5.7V45.78H22.14V.12L55.26,40.8Z"/><path d="M85.62,44v1.74H63L82.8,2.52H63V.78H85.8L65.94,44Z"/><path d="M96.63,39.54a22.82,22.82,0,0,1-6.81-16.41,22.18,22.18,0,0,1,6.9-16.26,23.36,23.36,0,0,1,33.06,0,22.24,22.24,0,0,1,6.84,16.29,22.84,22.84,0,0,1-6.78,16.44,21.78,21.78,0,0,1-16.2,7h-.9A21.71,21.71,0,0,1,96.63,39.54Zm38-16.29a20.8,20.8,0,0,0-6.27-15.18,21.26,21.26,0,0,0-30.27,0,20.75,20.75,0,0,0-6.3,15.18,20.85,20.85,0,0,0,6.3,15.21,21.15,21.15,0,0,0,30.24,0A20.85,20.85,0,0,0,134.64,23.25Z"/><path d="M164.82.78h16V2.52h-14V26.88h11.7v1.74H166.8V45.78h-2Z"/><path d="M186.84.78H203V2.52H188.82V27h11.82v1.74H188.82V44H203v1.74H186.84Z"/><path d="M209,.78h2.58a14.23,14.23,0,0,1,10.23,4.29,13.62,13.62,0,0,1,4.41,10.08,13.4,13.4,0,0,1-4.5,10q-4.5,4.26-9.66,4.26h-.42L227.1,45.78h-2.58L210.9,31.5V45.78H209Zm1.92,26.94H212A11.79,11.79,0,0,0,220.56,24a12.05,12.05,0,0,0,3.72-8.82,12.06,12.06,0,0,0-3.84-8.88,12.15,12.15,0,0,0-8.76-3.78h-.78Z"/><path d="M233.4.78h16.14V2.52H235.38V27H247.2v1.74H235.38V44h14.16v1.74H233.4Z"/><path d="M267.89,45.78h-2v-18L252.23.78h2.16l12.66,24.9L279.47.78h1.8l-13.38,27Z"/></g></g></svg>